# xmcd CD database file
#
# Track frame offsets:
#	150
#	14696
#	34377
#	56340
#	75472
#
# Disc length: 1268 seconds
#
# Revision: 0
# Processed by: cddbd v1.5.1PL0 Copyright (c) Steve Scherf et al.
# Submitted via: CDex 1.51
#
DISCID=3604f205
DTITLE=SJV-SC - LUNAR WORLD
DYEAR=2005
DGENRE=Game
TTITLE0=Softly luster - tributed by Nao theme-
TTITLE1=Endless reason - tributed by Character Select theme-
TTITLE2=Philosopher - tributed by Graveyard theme-
TTITLE3=Peace - tributed by Chonaill theme-
TTITLE4=LUNAR WORLD - tributed by Title theme-
EXTD=YEAR: 2005
EXTT0=
EXTT1=
EXTT2=
EXTT3=
EXTT4=
PLAYORDER=
